<svg width="79" height="76" fill="none" xmlns="http://www.w3.org/2000/svg"><path d="M79 .502H34.514v3.943H79V.502zm0 35.558H0v3.942h79V36.06zm0-8.89H0v3.943h79v-3.942zm0-8.889H34.514v3.943H79V18.28zm0-8.851H34.514v3.943H79V9.43z" fill="#CA342E"/><path d="M16.851 20.291a2.49 2.49 0 01-2.473 2.474 2.466 2.466 0 01-2.474-2.474 2.466 2.466 0 012.474-2.474c1.352-.038 2.473 1.083 2.473 2.474zm0-8.889a2.466 2.466 0 01-2.473 2.473 2.466 2.466 0 01-2.474-2.473 2.49 2.49 0 012.474-2.474 2.466 2.466 0 012.473 2.474zm0-8.928a2.466 2.466 0 01-2.473 2.473 2.466 2.466 0 01-2.474-2.473A2.466 2.466 0 0114.378 0a2.49 2.49 0 012.473 2.474zM4.947 20.291a2.49 2.49 0 01-2.473 2.474A2.49 2.49 0 010 20.29c0-1.391 1.12-2.512 2.474-2.512 1.391 0 2.473 1.12 2.473 2.512zm0-8.889a2.466 2.466 0 01-2.473 2.473A2.491 2.491 0 010 11.402a2.49 2.49 0 012.474-2.474 2.442 2.442 0 012.473 2.474zm0-8.928a2.466 2.466 0 01-2.473 2.473C1.12 4.986 0 3.865 0 2.474A2.49 2.49 0 012.474 0a2.466 2.466 0 012.473 2.474zM28.64 20.291a2.49 2.49 0 01-2.474 2.474 2.49 2.49 0 01-2.474-2.474 2.466 2.466 0 012.474-2.474c1.353-.038 2.473 1.083 2.473 2.474zm0-8.889a2.466 2.466 0 01-2.474 2.473 2.49 2.49 0 01-2.474-2.473 2.49 2.49 0 012.474-2.474 2.466 2.466 0 012.473 2.474zm0-8.928a2.466 2.466 0 01-2.474 2.473 2.49 2.49 0 01-2.474-2.473A2.466 2.466 0 0126.166 0a2.49 2.49 0 012.473 2.474zM1.043 64.39h3.634l2.55 7.15h.04l2.511-7.15h3.672v10.977h-2.435V66.94h-.039l-2.86 8.426H6.261L3.478 66.94H3.44v8.426H1.043V64.39zm20.717 3.17l-1.314 3.4h2.666l-1.352-3.4zm-.928-3.17h2.01l4.792 10.977H24.89l-.927-2.32H19.71l-.927 2.32h-2.667l4.715-10.977zM6.261 58.67c2.049 0 3.401-1.507 3.401-3.556 0-2.048-1.352-3.517-3.4-3.517-2.05 0-3.402 1.508-3.402 3.517 0 2.049 1.353 3.556 3.401 3.556zm0-9.315c3.44 0 5.914 2.242 5.914 5.76 0 3.516-2.513 5.758-5.914 5.758-3.44 0-5.913-2.242-5.913-5.759 0-3.517 2.473-5.758 5.913-5.758zm10.359 4.832h1.43c.888 0 2.048-.039 2.048-1.237 0-1.121-1.005-1.276-1.855-1.276h-1.624v2.513zm-2.436-4.561h4.252c2.241 0 4.135.773 4.135 3.324 0 1.546-.811 2.744-2.357 3.014l2.783 4.639h-2.9l-2.28-4.407H16.62v4.407h-2.435V49.626zm12.832 0h-2.435v10.977h2.435V49.626zM39.5 59.83c-1.43.734-3.015 1.043-4.6 1.043-3.44 0-5.913-2.242-5.913-5.759 0-3.517 2.512-5.758 5.914-5.758 1.739 0 3.285.386 4.367 1.43l-1.7 1.855c-.658-.696-1.43-1.044-2.667-1.044-2.049 0-3.402 1.508-3.402 3.517 0 2.049 1.353 3.556 3.402 3.556a5.03 5.03 0 002.28-.541v-1.778H35.21V54.11h4.29v5.72zm4.908-10.204h-2.435v10.977h2.435V49.626zm2.552 0h3.285l4.676 7.653h.039v-7.653h2.435v10.977h-3.17l-4.792-7.808h-.039v7.807H46.96V49.627zm17.546 3.208l-1.314 3.401h2.667l-1.353-3.401zm-.928-3.208h2.01l4.754 10.977h-2.705l-.928-2.32h-4.251l-.928 2.32h-2.667l4.715-10.977zm8.349 0h2.435V58.4h4.483v2.203h-6.918V49.626zM32.698 68.912h1.43c.889 0 2.048-.038 2.048-1.237 0-1.082-1.005-1.275-1.855-1.275h-1.585v2.512h-.038zM30.3 64.39h4.252c2.241 0 4.135.773 4.135 3.324 0 1.546-.811 2.744-2.357 3.015l2.782 4.638h-2.898l-2.28-4.406h-1.199v4.406H30.34V64.39h-.04zm13.876 0H41.78v10.977h2.396V64.39zm2.706 0h3.285l4.638 7.614h.039V64.39h2.435v10.977h-3.17l-4.792-7.808h-.039v7.808h-2.396V64.39zm13.064 0h7.459v2.242h-5.063v2.01h4.792v2.241h-4.792v2.242h5.334v2.242h-7.73V64.39zm16.658 2.667c-.387-.502-1.16-.734-1.74-.734-.695 0-1.623.309-1.623 1.12 0 2.01 5.063.696 5.063 4.561 0 2.435-1.971 3.595-4.213 3.595-1.391 0-2.666-.425-3.71-1.392l1.74-1.893a2.693 2.693 0 002.086 1.043c.812 0 1.662-.386 1.662-1.16 0-2.01-5.14-.927-5.14-4.599 0-2.357 2.048-3.555 4.174-3.555 1.237 0 2.435.347 3.362 1.159l-1.661 1.855z" fill="#304981"/></svg>