<svg width="61" height="46" fill="none" xmlns="http://www.w3.org/2000/svg"><path d="M48.407 46c-5.117 0-8.987-1.947-11.61-5.841-2.23-3.286-3.345-7.302-3.345-12.048 0-6.085 1.64-11.56 4.919-16.429C41.781 6.815 46.898 2.921 53.719 0l1.771 3.286c-4.066 1.582-7.608 4.076-10.626 7.484-2.886 3.407-4.328 6.875-4.328 10.405 0 1.46.196 2.738.59 3.833 2.099-1.582 4.526-2.373 7.28-2.373 3.542 0 6.494 1.095 8.855 3.286C59.754 27.989 61 30.788 61 34.318c0 3.285-1.246 6.084-3.739 8.396C54.9 44.904 51.948 46 48.406 46zm-33.452 0c-5.116 0-8.986-1.947-11.61-5.841C1.115 36.873 0 32.857 0 28.11c0-6.085 1.64-11.56 4.92-16.429C8.33 6.815 13.445 2.921 20.267 0l1.77 3.286c-4.066 1.582-7.608 4.076-10.625 7.484-2.886 3.407-4.33 6.875-4.33 10.405 0 1.46.198 2.738.591 3.833 2.1-1.582 4.526-2.373 7.28-2.373 3.543 0 6.494 1.095 8.856 3.286 2.492 2.068 3.738 4.867 3.738 8.397 0 3.285-1.246 6.084-3.738 8.396C21.448 44.904 18.497 46 14.955 46z" fill="#CCC"/></svg>