<svg width="30" height="30" fill="none" xmlns="http://www.w3.org/2000/svg"><path d="M13.44 21.075v2.538c0 2.15-2 3.887-4.463 3.887s-4.475-1.737-4.475-3.887v-2.538c0 2.15 2 3.675 4.475 3.675 2.463 0 4.463-1.537 4.463-3.675z" stroke="#191C20" stroke-width="1.5" stroke-linecap="round" stroke-linejoin="round"/><path d="M13.438 17.638c0 .625-.176 1.2-.476 1.7-.737 1.212-2.25 1.975-4 1.975s-3.262-.775-4-1.975c-.3-.5-.474-1.075-.474-1.7 0-1.075.5-2.038 1.3-2.738.812-.712 1.924-1.137 3.162-1.137s2.35.437 3.163 1.137c.825.688 1.325 1.663 1.325 2.738z" stroke="#191C20" stroke-width="1.5" stroke-linecap="round" stroke-linejoin="round"/><path d="M13.44 17.637v3.438c0 2.15-2 3.675-4.463 3.675s-4.475-1.538-4.475-3.675v-3.438c0-2.15 2-3.887 4.475-3.887 1.237 0 2.35.438 3.162 1.137.8.7 1.3 1.675 1.3 2.75zm14.06-3.925v2.576c0 .687-.55 1.25-1.25 1.274H23.8c-1.35 0-2.588-.987-2.7-2.337a2.51 2.51 0 01.75-2.037c.462-.476 1.1-.75 1.8-.75h2.6c.7.024 1.25.587 1.25 1.274z" stroke="#191C20" stroke-width="1.5" stroke-linecap="round" stroke-linejoin="round"/><path d="M2.5 13.125v-2.5c0-3.4 2.05-5.775 5.237-6.175a6.66 6.66 0 011.013-.075H20c.325 0 .637.012.938.062 3.225.375 5.312 2.763 5.312 6.188v1.813h-2.6c-.7 0-1.337.274-1.8.75a2.51 2.51 0 00-.75 2.037c.112 1.35 1.35 2.338 2.7 2.338h2.45v1.812c0 3.75-2.5 6.25-6.25 6.25h-3.125" stroke="#191C20" stroke-width="1.5" stroke-linecap="round" stroke-linejoin="round"/></svg>