<svg width="45" height="74" fill="none" xmlns="http://www.w3.org/2000/svg"><path d="M28.58 54.192l12.252-19.7c.04-.063.073-.13.1-.2a21.815 21.815 0 003.232-11.414c0-12.07-9.82-21.89-21.89-21.89C10.202.988.381 10.808.381 22.878c0 4.025 1.119 7.967 3.236 11.42.024.06.053.119.087.176l11.812 19.767C6.347 55.537.318 59.307.318 63.881c0 5.666 9.63 10.104 21.923 10.104 12.292 0 21.922-4.438 21.922-10.104.001-4.595-6.31-8.45-15.582-9.689zM5.819 33.194a19.373 19.373 0 01-2.985-10.316c0-10.719 8.72-19.44 19.44-19.44s19.44 8.721 19.44 19.44a19.37 19.37 0 01-2.985 10.316c-.04.065-.074.133-.1.203l-12.944 20.81c-.194.298-.233.366-.47.757l-3.269 5.255L5.928 33.414a1.23 1.23 0 00-.11-.22zm16.424 38.34C10.767 71.534 2.77 67.5 2.77 63.88c0-3.285 6.022-6.38 14.122-7.339l3.98 6.66c.219.367.613.594 1.04.597h.01c.424 0 .818-.219 1.042-.578l4.183-6.727c8.23.891 14.564 4.065 14.564 7.387 0 3.62-7.996 7.653-19.47 7.653z" fill="#CA342E"/><path d="M30.201 22.878c0-4.389-3.57-7.96-7.96-7.96-4.388 0-7.959 3.572-7.959 7.96 0 4.39 3.57 7.96 7.96 7.96 4.388 0 7.96-3.57 7.96-7.96zm-13.468 0a5.514 5.514 0 015.509-5.508 5.514 5.514 0 015.508 5.508 5.514 5.514 0 01-5.508 5.509 5.514 5.514 0 01-5.509-5.509z" fill="#CA342E"/></svg>