<svg width="71" height="76" fill="none" xmlns="http://www.w3.org/2000/svg"><path d="M56.92 12.43a20.51 20.51 0 00-14.933-5.255c-5.514.307-10.578 2.75-14.261 6.878-7.603 8.523-6.876 21.663 1.62 29.29a20.556 20.556 0 0013.777 5.276c5.681 0 11.34-2.329 15.418-6.9 7.602-8.522 6.875-21.662-1.62-29.29zm-.33 27.54c-6.639 7.444-18.08 8.081-25.5 1.417-7.422-6.662-8.056-18.14-1.416-25.584a17.92 17.92 0 0112.457-6.008c.343-.018.683-.028 1.023-.028 4.447 0 8.682 1.62 12.022 4.618 7.42 6.663 8.055 18.14 1.414 25.585z" fill="#BA302B"/><path d="M31.998 17.85a1.316 1.316 0 00.102 1.854 1.303 1.303 0 001.847-.103c4.556-5.107 12.4-5.543 17.491-.974a1.305 1.305 0 001.847-.102 1.316 1.316 0 00-.103-1.853c-6.165-5.535-15.668-5.005-21.184 1.179z" fill="#BA302B"/><path d="M70.949 26.196c-.444-7.43-3.745-14.24-9.294-19.178C56.105 2.078 48.977-.39 41.565.05 34.16.495 27.37 3.807 22.448 9.374 12.58 20.536 13.29 37.496 23.83 47.803l-4.511 5.164-1.447-1.288a1.303 1.303 0 00-1.843.107L.333 69.385a1.311 1.311 0 00.102 1.853l4.932 4.428a1.303 1.303 0 001.847-.103L22.932 57.94a1.315 1.315 0 00-.106-1.856l-1.548-1.377 4.508-5.16a27.48 27.48 0 0017.403 6.18c.564 0 1.132-.018 1.7-.052 7.404-.446 14.193-3.758 19.116-9.326 4.923-5.567 7.388-12.724 6.944-20.154zM6.137 72.835l-2.982-2.678 13.957-15.646 2.994 2.664-13.97 15.66zm55.91-28.226c-4.459 5.044-10.608 8.043-17.316 8.447-6.706.414-13.17-1.838-18.197-6.311-10.377-9.234-11.332-25.218-2.127-35.63 4.458-5.043 10.608-8.042 17.315-8.446a25.175 25.175 0 011.54-.046c6.15 0 12.016 2.227 16.658 6.358 5.028 4.473 8.017 10.643 8.419 17.372.401 6.73-1.834 13.213-6.292 18.256z" fill="#BA302B"/></svg>