<svg width="86" height="86" fill="none" xmlns="http://www.w3.org/2000/svg"><path d="M72.802 62.158H68.97V12.346a1.277 1.277 0 00-1.277-1.277h-37.04V8.941a1.277 1.277 0 00-2.554 0v2.128H17.456a1.277 1.277 0 00-1.278 1.277v12.347h-2.98a1.277 1.277 0 000 2.554h2.98v47.258a1.277 1.277 0 001.278 1.277h37.89v4.683a1.277 1.277 0 002.555 0v-4.683h9.792a1.277 1.277 0 001.277-1.277v-9.792h3.832a1.277 1.277 0 100-2.555zm-54.07-48.534H28.1v11.069h-9.366v-11.07zm0 59.604v-45.98h10.644a1.277 1.277 0 001.278-1.278V13.624h35.762v48.534h-9.792a1.277 1.277 0 00-1.277 1.278v9.792H18.733zm47.684 0H57.9v-8.515h8.515v8.515z" fill="#CA342E"/><path d="M62.158 23.416a4.683 4.683 0 10-4.683 4.683 4.692 4.692 0 004.683-4.683zm-6.812 0a2.129 2.129 0 114.258 0 2.129 2.129 0 01-4.258 0zM26.822 59.604a4.683 4.683 0 104.683 4.683 4.692 4.692 0 00-4.683-4.683zm0 6.812a2.129 2.129 0 110-4.258 2.129 2.129 0 010 4.258z" fill="#CA342E"/></svg>