<svg width="85" height="85" fill="none" xmlns="http://www.w3.org/2000/svg"><path d="M73.793 52.036H32.541V10.784c0-.7-.567-1.268-1.269-1.268H10.784c-.702 0-1.27.567-1.27 1.268v63.01c0 .702.568 1.269 1.27 1.269h63.01c.7 0 1.268-.567 1.268-1.269v-20.49c0-.7-.568-1.268-1.269-1.268zm-43.79-39.983v39.983h-17.95v-8.478h6.156a1.268 1.268 0 100-2.537h-6.157V32.8h11.285a1.268 1.268 0 100-2.537H12.052v-8.221h6.157a1.268 1.268 0 100-2.538h-6.157v-7.45h17.952zm42.522 60.473H12.052V54.573h60.473v17.953z" fill="#CA342E"/><path d="M63.546 68.917a5.375 5.375 0 005.368-5.37 5.374 5.374 0 00-5.368-5.367 5.375 5.375 0 00-5.369 5.368 5.375 5.375 0 005.37 5.369zm0-8.2c1.56 0 2.831 1.27 2.831 2.83a2.835 2.835 0 01-2.83 2.832 2.835 2.835 0 01-2.832-2.831c0-1.56 1.27-2.831 2.831-2.831z" fill="#CA342E"/></svg>