<svg width="86" height="86" fill="none" xmlns="http://www.w3.org/2000/svg"><path d="M43 45.58a28.844 28.844 0 00-28.81 28.81 1.29 1.29 0 001.29 1.29h55.04a1.29 1.29 0 001.29-1.29A28.844 28.844 0 0043 45.58zm10.862 4.945L43 61.387 32.138 50.525a26.17 26.17 0 0121.732 0h-.008zm-24.123 1.247l12.35 12.35h.05V73.1H16.805A26.256 26.256 0 0129.74 51.772zM44.719 73.1v-9.787l11.542-11.541a26.254 26.254 0 0112.9 21.328H44.72zM29.24 33.54a16.59 16.59 0 0028.552-.808h.077c1.884-.86 3.75-3.638 3.982-3.982a10.854 10.854 0 001.789-6.244c0-10.99-9.236-19.926-20.58-19.926h-.112c-11.352 0-20.588 8.935-20.588 19.926v4.154a6.717 6.717 0 002.038 4.825 7.087 7.087 0 004.842 2.055zm14.018 5.16a13.915 13.915 0 01-12.72-8.144 2.129 2.129 0 010-.447l.224-.138c4.008-2.46 8.987-5.53 11.928-8.35 3.191-3.062 6.51-6.769 7.921-8.368A13.699 13.699 0 0157.19 24.94 13.864 13.864 0 0143.258 38.7zM24.94 22.506c0-9.606 8.075-17.346 18-17.346h.112c9.933 0 18.008 7.74 18.008 17.346a8.205 8.205 0 01-1.402 4.808l-.077.12a16.28 16.28 0 00-8.6-16.968 1.29 1.29 0 00-1.574.301c0 .052-4.352 5.066-8.445 8.987-2.778 2.606-7.628 5.616-11.524 8.015l-.396.241a2.794 2.794 0 00-1.083 2.623v.086a4.491 4.491 0 01-1.72-1.066 4.16 4.16 0 01-1.299-2.993v-4.154z" fill="#CA342E"/><path d="M37.41 69.66a2.15 2.15 0 100-4.3 2.15 2.15 0 000 4.3z" fill="#CA342E"/></svg>