<svg width="79" height="79" fill="none" xmlns="http://www.w3.org/2000/svg"><path d="M78.913 10.003a1.283 1.283 0 00-1.166-.827l-7.607-.18.172-7.672A1.295 1.295 0 0069.546.11a1.274 1.274 0 00-1.406.25l-9.09 8.756a1.3 1.3 0 00-.398.905l-.195 8.193-2.25 2.27c-5.975-5.585-13.963-9.007-22.731-9.007C15.017 11.476 0 26.625 0 45.245 0 63.856 15.018 79 33.477 79c18.459 0 33.476-15.143 33.476-33.755a33.795 33.795 0 00-8.931-22.931l1.98-1.996 8.588.202h.03c.33 0 .647-.128.886-.358l9.096-8.755a1.3 1.3 0 00.31-1.404zM64.385 45.245c0 17.185-13.865 31.166-30.91 31.166-17.043 0-30.909-13.981-30.909-31.166 0-17.193 13.866-31.18 30.91-31.18 8.06 0 15.408 3.132 20.916 8.248l-4.75 4.79c-4.289-3.89-9.957-6.262-16.165-6.262-13.34 0-24.19 10.947-24.19 24.403 0 13.452 10.85 24.396 24.19 24.396 13.343 0 24.197-10.944 24.197-24.396a24.418 24.418 0 00-6.218-16.31l4.75-4.79a31.207 31.207 0 018.18 21.1zm-23.18-.005c0 4.297-3.467 7.792-7.727 7.792s-7.727-3.496-7.727-7.792c0-4.296 3.466-7.792 7.726-7.792 1.667 0 3.208.54 4.472 1.449l-5.381 5.427a1.301 1.301 0 000 1.83 1.274 1.274 0 001.816 0l5.38-5.427a7.792 7.792 0 011.44 4.513zm-1.426-8.19a10.178 10.178 0 00-6.302-2.19c-5.676 0-10.294 4.656-10.294 10.38 0 5.724 4.617 10.38 10.294 10.38 5.676 0 10.293-4.656 10.293-10.38 0-2.397-.818-4.601-2.176-6.36l8.043-8.112a21.825 21.825 0 015.469 14.477c0 12.025-9.703 21.807-21.63 21.807-11.924 0-21.623-9.783-21.623-21.808 0-12.028 9.7-21.814 21.623-21.814 5.5 0 10.525 2.085 14.347 5.509l-8.044 8.111zm28.339-19.13l-5.609-.132 4.067-4.102a1.302 1.302 0 000-1.83 1.275 1.275 0 00-1.815 0L61.09 15.56l.117-4.94 4.165-4.01h.001l2.303-2.22-.131 5.843a1.29 1.29 0 001.253 1.322l5.791.137-6.47 6.228z" fill="#CA342E"/></svg>