<svg width="86" height="47" fill="none" xmlns="http://www.w3.org/2000/svg"><path d="M58.13 33.333c-2.581-2.109-6.252-2.015-8.724.042l-16.354-13.01c.205-.782.276-1.6.193-2.427a6.813 6.813 0 00-2.488-4.624c-2.93-2.392-7.26-1.953-9.653.977-2.148 2.632-2.006 6.388.167 8.86L11.135 34.699a6.784 6.784 0 00-4.948-1.45 6.812 6.812 0 00-4.625 2.486 6.869 6.869 0 00.977 9.653 6.808 6.808 0 005.03 1.51 6.814 6.814 0 004.624-2.487 6.815 6.815 0 001.51-5.028 6.842 6.842 0 00-.81-2.613L23.42 24.776c.95.462 1.97.71 2.993.71 1.991 0 3.967-.86 5.321-2.518.037-.045.066-.093.101-.139l15.879 12.634c-1.482 2.825-.827 6.405 1.739 8.5a6.832 6.832 0 004.331 1.542 6.85 6.85 0 005.322-2.519 6.814 6.814 0 001.51-5.028 6.816 6.816 0 00-2.486-4.625zm-48.02 9.379a4.143 4.143 0 01-2.813 1.513 4.142 4.142 0 01-3.06-.918 4.18 4.18 0 01-.594-5.874 4.179 4.179 0 015.872-.594c.172.14.321.301.467.463.074.145.175.28.305.395.402.576.67 1.238.743 1.956a4.14 4.14 0 01-.92 3.059zm19.543-21.443a4.151 4.151 0 01-2.813 1.513 4.15 4.15 0 01-3.06-.919 4.179 4.179 0 01-.595-5.873 4.178 4.178 0 015.873-.594 4.143 4.143 0 011.514 2.813 4.145 4.145 0 01-.919 3.06zm27.373 20.018a4.179 4.179 0 01-5.873.595 4.18 4.18 0 01-.595-5.874 4.167 4.167 0 013.237-1.532c.928 0 1.862.307 2.636.938a4.179 4.179 0 01.595 5.873zm7.302-13.732a1.344 1.344 0 00-1.887.215l-2.037 2.562a1.342 1.342 0 102.103 1.672l2.036-2.562a1.343 1.343 0 00-.215-1.887zm8.465-10.639a1.344 1.344 0 00-1.887.215l-4.232 5.32a1.344 1.344 0 002.103 1.673l4.232-5.32c.46-.58.364-1.425-.216-1.888zm6.27-7.881a1.344 1.344 0 00-1.886.215l-2.039 2.562a1.344 1.344 0 002.103 1.673l2.038-2.562c.46-.58.365-1.426-.216-1.888z" fill="#CA342E"/><path d="M84.968.853A1.342 1.342 0 0083.724.69l-10.06 3.728a1.344 1.344 0 00.934 2.52l8.217-3.044-.152 8.76a1.344 1.344 0 001.321 1.367h.023c.731 0 1.33-.586 1.343-1.32l.184-10.726a1.343 1.343 0 00-.567-1.12z" fill="#CA342E"/></svg>