<svg width="90" height="90" fill="none" xmlns="http://www.w3.org/2000/svg"><path d="M84.47 44.512h-6.924V32.827c0-.744-.602-1.345-1.345-1.345h-21.69v-11.66c0-.743-.603-1.345-1.346-1.345H5.215c-.744 0-1.346.602-1.346 1.346v43.913c0 .743.602 1.345 1.345 1.345h11.19c.467 3.452 3.428 6.125 7.009 6.125 3.572 0 6.527-2.673 6.993-6.125h31.401c.468 3.454 3.429 6.127 7.01 6.127 3.58 0 6.541-2.673 7.009-6.127h8.642c.743 0 1.346-.602 1.346-1.345v-17.88c0-.742-.602-1.344-1.345-1.344zM23.412 68.515a4.393 4.393 0 01-4.391-4.386c0-2.42 1.97-4.39 4.39-4.39 2.413 0 4.376 1.969 4.376 4.39a4.385 4.385 0 01-4.375 4.386zm0-11.467c-3.304 0-6.079 2.277-6.857 5.343H6.56V21.168h45.26v41.224H30.255c-.777-3.066-3.545-5.344-6.841-5.344zm45.404 11.47a4.395 4.395 0 01-4.391-4.39c0-2.42 1.97-4.388 4.39-4.388 2.421 0 4.392 1.968 4.392 4.388s-1.97 4.39-4.391 4.39zm14.307-6.127h-7.45c-.779-3.064-3.552-5.34-6.856-5.34-3.305 0-6.08 2.276-6.858 5.34H54.51V34.172h20.346v11.685c0 .742.603 1.345 1.345 1.345h6.923v15.189h-.001z" fill="#CA342E" opacity=".99"/></svg>