<svg width="30" height="30" fill="none" xmlns="http://www.w3.org/2000/svg"><path d="M12.637 13.938H9.325c-.788 0-1.425.637-1.425 1.424v6.4h4.737v-7.825 0z" stroke="#191C20" stroke-width="1.5" stroke-miterlimit="10" stroke-linecap="round" stroke-linejoin="round"/><path d="M15.951 8.25h-1.9c-.787 0-1.425.638-1.425 1.425V21.75h4.738V9.675c0-.787-.625-1.425-1.413-1.425zm4.734 7.813h-3.312v5.687h4.737v-4.262a1.44 1.44 0 00-1.425-1.425z" stroke="#191C20" stroke-width="1.5" stroke-miterlimit="10" stroke-linecap="round" stroke-linejoin="round"/><path d="M11.25 27.5h7.5c6.25 0 8.75-2.5 8.75-8.75v-7.5C27.5 5 25 2.5 18.75 2.5h-7.5C5 2.5 2.5 5 2.5 11.25v7.5C2.5 25 5 27.5 11.25 27.5z" stroke="#191C20" stroke-width="1.5" stroke-linecap="round" stroke-linejoin="round"/></svg>