<svg width="30" height="30" fill="none" xmlns="http://www.w3.org/2000/svg"><path d="M4.986 18.326l-1.9-1.9a2.007 2.007 0 010-2.825l1.9-1.9c.325-.325.588-.963.588-1.413V7.6c0-1.1.9-2 2-2h2.687c.45 0 1.088-.262 1.413-.587l1.9-1.9a2.007 2.007 0 012.825 0l1.9 1.9c.325.325.962.587 1.412.587H22.4c1.1 0 2 .9 2 2v2.688c0 .45.262 1.088.587 1.412l1.9 1.9c.775.776.775 2.05 0 2.825l-1.9 1.9c-.325.326-.587.963-.587 1.413v2.687c0 1.1-.9 2-2 2h-2.69c-.45 0-1.087.263-1.412.588l-1.9 1.9a2.007 2.007 0 01-2.825 0l-1.9-1.9c-.325-.325-.963-.588-1.413-.588H7.574c-1.1 0-2-.9-2-2v-2.687c0-.462-.263-1.1-.588-1.412zm6.264.424l7.5-7.5" stroke="#191C20" stroke-width="1.5" stroke-linecap="round" stroke-linejoin="round"/><path d="M18.118 18.125h.011m-6.261-6.25h.011" stroke="#191C20" stroke-width="2" stroke-linecap="round" stroke-linejoin="round"/></svg>