<svg width="30" height="30" fill="none" xmlns="http://www.w3.org/2000/svg"><path d="M3.125 16.55v-2.163a4.71 4.71 0 014.7-4.7h14.35a4.71 4.71 0 014.7 4.7v1.8H24.35c-.7 0-1.338.275-1.8.75a2.51 2.51 0 00-.75 2.038c.113 1.35 1.35 2.337 2.7 2.337h2.375V22.8a4.71 4.71 0 01-4.7 4.7h-6.85" stroke="#191C20" stroke-width="1.5" stroke-linecap="round" stroke-linejoin="round"/><path d="M3.125 15.513V9.8a3.56 3.56 0 012.3-3.337l9.925-3.75c1.55-.588 3.213.562 3.213 2.225v4.75m9.635 7.775v2.575c0 .688-.55 1.25-1.25 1.275h-2.45c-1.35 0-2.587-.987-2.7-2.337a2.51 2.51 0 01.75-2.038c.463-.475 1.1-.75 1.8-.75h2.6c.7.025 1.25.587 1.25 1.275zM8.75 15h8.75" stroke="#191C20" stroke-width="1.5" stroke-linecap="round" stroke-linejoin="round"/><path d="M3.75 20.625h6.675c.8 0 1.45.65 1.45 1.45v1.6" stroke="#191C20" stroke-width="1.5" stroke-miterlimit="10" stroke-linecap="round" stroke-linejoin="round"/><path d="M5.275 19.1L3.75 20.625l1.525 1.525m6.6 5.075H5.2c-.8 0-1.45-.65-1.45-1.45v-1.6" stroke="#191C20" stroke-width="1.5" stroke-miterlimit="10" stroke-linecap="round" stroke-linejoin="round"/><path d="M10.352 28.75l1.525-1.525-1.525-1.525" stroke="#191C20" stroke-width="1.5" stroke-miterlimit="10" stroke-linecap="round" stroke-linejoin="round"/></svg>