<svg width="30" height="30" fill="none" xmlns="http://www.w3.org/2000/svg"><path d="M22.19 8.812c-.3-.05-.613-.062-.938-.062h-12.5c-.35 0-.688.025-1.013.075.175-.35.425-.675.725-.975l4.063-4.075a4.406 4.406 0 016.2 0l2.187 2.212a4.218 4.218 0 011.275 2.825z" stroke="#191C20" stroke-width="1.5" stroke-linecap="round" stroke-linejoin="round"/><path d="M11.25 23.75c0 .938-.262 1.825-.725 2.575A4.962 4.962 0 016.25 28.75a4.962 4.962 0 01-4.275-2.425 4.901 4.901 0 01-.725-2.575c0-2.762 2.237-5 5-5a5 5 0 015 5zm-3.135-.025H4.39M6.25 21.9v3.737" stroke="#191C20" stroke-width="1.5" stroke-miterlimit="10" stroke-linecap="round" stroke-linejoin="round"/><path d="M27.5 15v6.25c0 3.75-2.5 6.25-6.25 6.25H9.537c.388-.325.725-.725.988-1.175.463-.75.725-1.637.725-2.575a5 5 0 00-5-5 4.98 4.98 0 00-3.75 1.7V15c0-3.4 2.05-5.775 5.237-6.175A6.66 6.66 0 018.75 8.75h12.5c.325 0 .637.012.938.062C25.413 9.187 27.5 11.575 27.5 15z" stroke="#191C20" stroke-width="1.5" stroke-linecap="round" stroke-linejoin="round"/><path d="M27.5 15.625h-3.75a2.507 2.507 0 00-2.5 2.5c0 1.375 1.125 2.5 2.5 2.5h3.75" stroke="#191C20" stroke-width="1.5" stroke-linecap="round" stroke-linejoin="round"/></svg>